<mxfile host="app.diagrams.net" modified="2024-04-25T01:52:03.809Z" agent="Mozilla/5.0 (Windows NT 10.0; Win64; x64) AppleWebKit/537.36 (KHTML, like Gecko) Chrome/116.0.0.0 Safari/537.36" etag="2hIMGl5cULgqExFVwbkJ" version="24.3.0" type="device">
  <diagram name="Page-1" id="72BKX9EvSJI387ElQfx-">
    <mxGraphModel dx="1434" dy="790" grid="1" gridSize="10" guides="1" tooltips="1" connect="1" arrows="1" fold="1" page="1" pageScale="1" pageWidth="850" pageHeight="1100" math="0" shadow="0">
      <root>
        <mxCell id="0" />
        <mxCell id="1" parent="0" />
        <mxCell id="MwTG-p8T1Us48HjJ3gv_-1" value="" style="ellipse;html=1;shape=startState;fillColor=#000000;strokeColor=#ff0000;" vertex="1" parent="1">
          <mxGeometry x="110" y="110" width="30" height="30" as="geometry" />
        </mxCell>
        <mxCell id="MwTG-p8T1Us48HjJ3gv_-2" value="" style="edgeStyle=orthogonalEdgeStyle;html=1;verticalAlign=bottom;endArrow=open;endSize=8;strokeColor=#ff0000;rounded=0;" edge="1" source="MwTG-p8T1Us48HjJ3gv_-10" parent="1">
          <mxGeometry relative="1" as="geometry">
            <mxPoint x="125" y="300" as="targetPoint" />
          </mxGeometry>
        </mxCell>
        <mxCell id="MwTG-p8T1Us48HjJ3gv_-3" value="Business Process Model of an involuntary detention" style="text;html=1;align=center;verticalAlign=middle;whiteSpace=wrap;rounded=0;fontSize=19;fontStyle=1" vertex="1" parent="1">
          <mxGeometry x="268" y="20" width="315" height="70" as="geometry" />
        </mxCell>
        <mxCell id="MwTG-p8T1Us48HjJ3gv_-9" value="" style="edgeStyle=orthogonalEdgeStyle;html=1;verticalAlign=bottom;endArrow=open;endSize=8;strokeColor=#ff0000;rounded=0;" edge="1" parent="1" source="MwTG-p8T1Us48HjJ3gv_-1" target="MwTG-p8T1Us48HjJ3gv_-10">
          <mxGeometry relative="1" as="geometry">
            <mxPoint x="125" y="350" as="targetPoint" />
            <mxPoint x="125" y="140" as="sourcePoint" />
          </mxGeometry>
        </mxCell>
        <mxCell id="MwTG-p8T1Us48HjJ3gv_-10" value="&lt;font style=&quot;font-size: 14px;&quot;&gt;Confirm detention decision&lt;/font&gt;" style="rounded=1;whiteSpace=wrap;html=1;" vertex="1" parent="1">
          <mxGeometry x="65" y="180" width="120" height="60" as="geometry" />
        </mxCell>
        <mxCell id="MwTG-p8T1Us48HjJ3gv_-11" value="" style="line;strokeWidth=6;fillColor=none;align=left;verticalAlign=middle;spacingTop=-1;spacingLeft=3;spacingRight=3;rotatable=0;labelPosition=right;points=[];portConstraint=eastwest;strokeColor=inherit;" vertex="1" parent="1">
          <mxGeometry x="105" y="300" width="40" height="8" as="geometry" />
        </mxCell>
        <mxCell id="MwTG-p8T1Us48HjJ3gv_-12" value="&lt;font style=&quot;font-size: 15px;&quot;&gt;Inform patient of rights&lt;/font&gt;" style="rounded=1;whiteSpace=wrap;html=1;" vertex="1" parent="1">
          <mxGeometry x="210" y="308" width="90" height="60" as="geometry" />
        </mxCell>
        <mxCell id="MwTG-p8T1Us48HjJ3gv_-13" value="&lt;font style=&quot;font-size: 15px;&quot;&gt;Record Detention Decision&lt;/font&gt;" style="rounded=1;whiteSpace=wrap;html=1;" vertex="1" parent="1">
          <mxGeometry x="210" y="400" width="90" height="60" as="geometry" />
        </mxCell>
        <mxCell id="MwTG-p8T1Us48HjJ3gv_-15" style="rounded=0;orthogonalLoop=1;jettySize=auto;html=1;exitX=0.5;exitY=0.875;exitDx=0;exitDy=0;entryX=0;entryY=0.5;entryDx=0;entryDy=0;exitPerimeter=0;edgeStyle=orthogonalEdgeStyle;" edge="1" parent="1" source="MwTG-p8T1Us48HjJ3gv_-11" target="MwTG-p8T1Us48HjJ3gv_-12">
          <mxGeometry relative="1" as="geometry" />
        </mxCell>
        <mxCell id="MwTG-p8T1Us48HjJ3gv_-16" style="edgeStyle=orthogonalEdgeStyle;rounded=0;orthogonalLoop=1;jettySize=auto;html=1;exitX=0.233;exitY=0.875;exitDx=0;exitDy=0;entryX=0;entryY=0.5;entryDx=0;entryDy=0;exitPerimeter=0;" edge="1" parent="1" source="MwTG-p8T1Us48HjJ3gv_-11" target="MwTG-p8T1Us48HjJ3gv_-13">
          <mxGeometry relative="1" as="geometry" />
        </mxCell>
        <mxCell id="MwTG-p8T1Us48HjJ3gv_-18" value="" style="edgeStyle=orthogonalEdgeStyle;rounded=0;orthogonalLoop=1;jettySize=auto;html=1;" edge="1" parent="1" source="MwTG-p8T1Us48HjJ3gv_-17" target="MwTG-p8T1Us48HjJ3gv_-13">
          <mxGeometry relative="1" as="geometry" />
        </mxCell>
        <mxCell id="MwTG-p8T1Us48HjJ3gv_-17" value="&amp;lt;&amp;lt; System&amp;gt;&amp;gt;&lt;div&gt;&lt;b&gt;Mentcare&lt;/b&gt;&lt;/div&gt;" style="rounded=0;whiteSpace=wrap;html=1;" vertex="1" parent="1">
          <mxGeometry x="212.5" y="500" width="85" height="60" as="geometry" />
        </mxCell>
        <mxCell id="MwTG-p8T1Us48HjJ3gv_-28" value="" style="edgeStyle=orthogonalEdgeStyle;rounded=0;orthogonalLoop=1;jettySize=auto;html=1;" edge="1" parent="1" source="MwTG-p8T1Us48HjJ3gv_-19" target="MwTG-p8T1Us48HjJ3gv_-27">
          <mxGeometry relative="1" as="geometry" />
        </mxCell>
        <mxCell id="MwTG-p8T1Us48HjJ3gv_-19" value="" style="line;strokeWidth=5;fillColor=none;align=left;verticalAlign=middle;spacingTop=-1;spacingLeft=3;spacingRight=3;rotatable=0;labelPosition=right;points=[];portConstraint=eastwest;strokeColor=inherit;direction=north;" vertex="1" parent="1">
          <mxGeometry x="350" y="330" width="10" height="110" as="geometry" />
        </mxCell>
        <mxCell id="MwTG-p8T1Us48HjJ3gv_-20" style="rounded=0;orthogonalLoop=1;jettySize=auto;html=1;exitX=1;exitY=0.5;exitDx=0;exitDy=0;entryX=0.664;entryY=0.1;entryDx=0;entryDy=0;entryPerimeter=0;" edge="1" parent="1" source="MwTG-p8T1Us48HjJ3gv_-12" target="MwTG-p8T1Us48HjJ3gv_-19">
          <mxGeometry relative="1" as="geometry" />
        </mxCell>
        <mxCell id="MwTG-p8T1Us48HjJ3gv_-21" style="rounded=0;orthogonalLoop=1;jettySize=auto;html=1;exitX=1;exitY=0.5;exitDx=0;exitDy=0;entryX=0.355;entryY=0.1;entryDx=0;entryDy=0;entryPerimeter=0;" edge="1" parent="1" source="MwTG-p8T1Us48HjJ3gv_-13" target="MwTG-p8T1Us48HjJ3gv_-19">
          <mxGeometry relative="1" as="geometry" />
        </mxCell>
        <mxCell id="MwTG-p8T1Us48HjJ3gv_-30" value="" style="edgeStyle=orthogonalEdgeStyle;rounded=0;orthogonalLoop=1;jettySize=auto;html=1;" edge="1" parent="1" source="MwTG-p8T1Us48HjJ3gv_-27" target="MwTG-p8T1Us48HjJ3gv_-29">
          <mxGeometry relative="1" as="geometry" />
        </mxCell>
        <mxCell id="MwTG-p8T1Us48HjJ3gv_-44" style="edgeStyle=orthogonalEdgeStyle;rounded=0;orthogonalLoop=1;jettySize=auto;html=1;exitX=0.5;exitY=1;exitDx=0;exitDy=0;entryX=0;entryY=0.5;entryDx=0;entryDy=0;" edge="1" parent="1" source="MwTG-p8T1Us48HjJ3gv_-27" target="MwTG-p8T1Us48HjJ3gv_-42">
          <mxGeometry relative="1" as="geometry" />
        </mxCell>
        <mxCell id="MwTG-p8T1Us48HjJ3gv_-27" value="" style="rhombus;whiteSpace=wrap;html=1;align=left;fillColor=none;strokeColor=inherit;strokeWidth=1;labelBackgroundColor=default;spacingTop=-1;spacingLeft=3;spacingRight=3;" vertex="1" parent="1">
          <mxGeometry x="403" y="362.5" width="45" height="45" as="geometry" />
        </mxCell>
        <mxCell id="MwTG-p8T1Us48HjJ3gv_-39" style="rounded=0;orthogonalLoop=1;jettySize=auto;html=1;exitX=1;exitY=0.25;exitDx=0;exitDy=0;entryX=0;entryY=0.5;entryDx=0;entryDy=0;" edge="1" parent="1" source="MwTG-p8T1Us48HjJ3gv_-29" target="MwTG-p8T1Us48HjJ3gv_-36">
          <mxGeometry relative="1" as="geometry" />
        </mxCell>
        <mxCell id="MwTG-p8T1Us48HjJ3gv_-40" style="rounded=0;orthogonalLoop=1;jettySize=auto;html=1;exitX=1;exitY=0.75;exitDx=0;exitDy=0;entryX=0;entryY=0.5;entryDx=0;entryDy=0;" edge="1" parent="1" source="MwTG-p8T1Us48HjJ3gv_-29" target="MwTG-p8T1Us48HjJ3gv_-38">
          <mxGeometry relative="1" as="geometry" />
        </mxCell>
        <mxCell id="MwTG-p8T1Us48HjJ3gv_-29" value="&lt;font style=&quot;font-size: 15px;&quot;&gt;Find Secure Place&lt;/font&gt;" style="rounded=1;whiteSpace=wrap;html=1;align=center;fillColor=none;strokeColor=inherit;strokeWidth=1;labelBackgroundColor=default;spacingTop=-1;spacingLeft=3;spacingRight=3;" vertex="1" parent="1">
          <mxGeometry x="365" y="210" width="120" height="60" as="geometry" />
        </mxCell>
        <mxCell id="MwTG-p8T1Us48HjJ3gv_-31" value="[dangerous]" style="text;html=1;align=center;verticalAlign=middle;whiteSpace=wrap;rounded=0;" vertex="1" parent="1">
          <mxGeometry x="430" y="289" width="70" height="30" as="geometry" />
        </mxCell>
        <mxCell id="MwTG-p8T1Us48HjJ3gv_-34" value="&lt;div&gt;[not&lt;/div&gt;dangerous]" style="text;html=1;align=center;verticalAlign=middle;whiteSpace=wrap;rounded=0;" vertex="1" parent="1">
          <mxGeometry x="425" y="470" width="70" height="30" as="geometry" />
        </mxCell>
        <mxCell id="MwTG-p8T1Us48HjJ3gv_-36" value="Transfer to police station" style="rounded=1;whiteSpace=wrap;html=1;fontSize=15;" vertex="1" parent="1">
          <mxGeometry x="540" y="170" width="100" height="60" as="geometry" />
        </mxCell>
        <mxCell id="MwTG-p8T1Us48HjJ3gv_-47" style="rounded=0;orthogonalLoop=1;jettySize=auto;html=1;exitX=1;exitY=0.5;exitDx=0;exitDy=0;entryX=0.565;entryY=0.1;entryDx=0;entryDy=0;entryPerimeter=0;" edge="1" parent="1" source="MwTG-p8T1Us48HjJ3gv_-38" target="MwTG-p8T1Us48HjJ3gv_-45">
          <mxGeometry relative="1" as="geometry" />
        </mxCell>
        <mxCell id="MwTG-p8T1Us48HjJ3gv_-38" value="Find secure place" style="rounded=1;whiteSpace=wrap;html=1;fontSize=15;" vertex="1" parent="1">
          <mxGeometry x="540" y="248" width="100" height="60" as="geometry" />
        </mxCell>
        <mxCell id="MwTG-p8T1Us48HjJ3gv_-42" value="&lt;font style=&quot;font-size: 15px;&quot;&gt;Admit to hospital&lt;/font&gt;" style="rounded=1;whiteSpace=wrap;html=1;align=center;fillColor=none;strokeColor=inherit;strokeWidth=1;labelBackgroundColor=default;spacingTop=-1;spacingLeft=3;spacingRight=3;" vertex="1" parent="1">
          <mxGeometry x="558" y="480" width="82" height="60" as="geometry" />
        </mxCell>
        <mxCell id="MwTG-p8T1Us48HjJ3gv_-45" value="" style="line;strokeWidth=5;fillColor=none;align=left;verticalAlign=middle;spacingTop=-1;spacingLeft=3;spacingRight=3;rotatable=0;labelPosition=right;points=[];portConstraint=eastwest;strokeColor=inherit;direction=north;" vertex="1" parent="1">
          <mxGeometry x="740" y="160" width="10" height="400" as="geometry" />
        </mxCell>
        <mxCell id="MwTG-p8T1Us48HjJ3gv_-46" style="rounded=0;orthogonalLoop=1;jettySize=auto;html=1;exitX=1;exitY=0.5;exitDx=0;exitDy=0;entryX=0.77;entryY=0.4;entryDx=0;entryDy=0;entryPerimeter=0;" edge="1" parent="1" source="MwTG-p8T1Us48HjJ3gv_-36" target="MwTG-p8T1Us48HjJ3gv_-45">
          <mxGeometry relative="1" as="geometry" />
        </mxCell>
        <mxCell id="MwTG-p8T1Us48HjJ3gv_-48" style="rounded=0;orthogonalLoop=1;jettySize=auto;html=1;exitX=1;exitY=0.5;exitDx=0;exitDy=0;entryX=0.308;entryY=0.4;entryDx=0;entryDy=0;entryPerimeter=0;" edge="1" parent="1" source="MwTG-p8T1Us48HjJ3gv_-42" target="MwTG-p8T1Us48HjJ3gv_-45">
          <mxGeometry relative="1" as="geometry" />
        </mxCell>
        <mxCell id="MwTG-p8T1Us48HjJ3gv_-49" value="Inform social care" style="rounded=1;whiteSpace=wrap;html=1;fontSize=15;" vertex="1" parent="1">
          <mxGeometry x="800" y="229.5" width="80" height="60" as="geometry" />
        </mxCell>
        <mxCell id="MwTG-p8T1Us48HjJ3gv_-61" value="" style="edgeStyle=orthogonalEdgeStyle;rounded=0;orthogonalLoop=1;jettySize=auto;html=1;" edge="1" parent="1" source="MwTG-p8T1Us48HjJ3gv_-50" target="MwTG-p8T1Us48HjJ3gv_-56">
          <mxGeometry relative="1" as="geometry" />
        </mxCell>
        <mxCell id="MwTG-p8T1Us48HjJ3gv_-50" value="Inform next of kin" style="rounded=1;whiteSpace=wrap;html=1;fontSize=15;" vertex="1" parent="1">
          <mxGeometry x="800" y="330.5" width="80" height="60" as="geometry" />
        </mxCell>
        <mxCell id="MwTG-p8T1Us48HjJ3gv_-51" value="Update register" style="rounded=1;whiteSpace=wrap;html=1;fontSize=15;" vertex="1" parent="1">
          <mxGeometry x="800" y="430.5" width="80" height="60" as="geometry" />
        </mxCell>
        <mxCell id="MwTG-p8T1Us48HjJ3gv_-53" style="rounded=0;orthogonalLoop=1;jettySize=auto;html=1;exitX=0.753;exitY=0.6;exitDx=0;exitDy=0;entryX=0;entryY=0.5;entryDx=0;entryDy=0;exitPerimeter=0;" edge="1" parent="1" source="MwTG-p8T1Us48HjJ3gv_-45" target="MwTG-p8T1Us48HjJ3gv_-49">
          <mxGeometry relative="1" as="geometry" />
        </mxCell>
        <mxCell id="MwTG-p8T1Us48HjJ3gv_-54" style="edgeStyle=orthogonalEdgeStyle;rounded=0;orthogonalLoop=1;jettySize=auto;html=1;exitX=0.498;exitY=0.4;exitDx=0;exitDy=0;entryX=0;entryY=0.5;entryDx=0;entryDy=0;exitPerimeter=0;" edge="1" parent="1" source="MwTG-p8T1Us48HjJ3gv_-45" target="MwTG-p8T1Us48HjJ3gv_-50">
          <mxGeometry relative="1" as="geometry" />
        </mxCell>
        <mxCell id="MwTG-p8T1Us48HjJ3gv_-55" style="rounded=0;orthogonalLoop=1;jettySize=auto;html=1;exitX=0.248;exitY=0.5;exitDx=0;exitDy=0;entryX=0;entryY=0.5;entryDx=0;entryDy=0;exitPerimeter=0;" edge="1" parent="1" source="MwTG-p8T1Us48HjJ3gv_-45" target="MwTG-p8T1Us48HjJ3gv_-51">
          <mxGeometry relative="1" as="geometry" />
        </mxCell>
        <mxCell id="MwTG-p8T1Us48HjJ3gv_-64" value="" style="edgeStyle=orthogonalEdgeStyle;rounded=0;orthogonalLoop=1;jettySize=auto;html=1;" edge="1" parent="1" source="MwTG-p8T1Us48HjJ3gv_-56" target="MwTG-p8T1Us48HjJ3gv_-63">
          <mxGeometry relative="1" as="geometry" />
        </mxCell>
        <mxCell id="MwTG-p8T1Us48HjJ3gv_-56" value="" style="line;strokeWidth=5;fillColor=none;align=left;verticalAlign=middle;spacingTop=-1;spacingLeft=3;spacingRight=3;rotatable=0;labelPosition=right;points=[];portConstraint=eastwest;strokeColor=inherit;direction=north;" vertex="1" parent="1">
          <mxGeometry x="960" y="160" width="10" height="400" as="geometry" />
        </mxCell>
        <mxCell id="MwTG-p8T1Us48HjJ3gv_-60" style="rounded=0;orthogonalLoop=1;jettySize=auto;html=1;entryX=0.753;entryY=0.2;entryDx=0;entryDy=0;entryPerimeter=0;" edge="1" parent="1" source="MwTG-p8T1Us48HjJ3gv_-49" target="MwTG-p8T1Us48HjJ3gv_-56">
          <mxGeometry relative="1" as="geometry" />
        </mxCell>
        <mxCell id="MwTG-p8T1Us48HjJ3gv_-62" style="rounded=0;orthogonalLoop=1;jettySize=auto;html=1;exitX=1;exitY=0.5;exitDx=0;exitDy=0;entryX=0.25;entryY=0.3;entryDx=0;entryDy=0;entryPerimeter=0;" edge="1" parent="1" source="MwTG-p8T1Us48HjJ3gv_-51" target="MwTG-p8T1Us48HjJ3gv_-56">
          <mxGeometry relative="1" as="geometry" />
        </mxCell>
        <mxCell id="MwTG-p8T1Us48HjJ3gv_-63" value="" style="ellipse;html=1;shape=endState;fillColor=#000000;strokeColor=#000000;" vertex="1" parent="1">
          <mxGeometry x="1080" y="345" width="30" height="30" as="geometry" />
        </mxCell>
      </root>
    </mxGraphModel>
  </diagram>
</mxfile>
